<svg width="1256" height="1256" viewBox="0 0 1256 1256" fill="none" xmlns="http://www.w3.org/2000/svg">
<g filter="url(#filter0_f_1090_3091)">
<g filter="url(#filter1_f_1090_3091)">
<path d="M626.391 168.391L649.159 605.622L1086.39 628.391L649.159 651.159L626.391 1088.39L603.622 651.159L166.391 628.391L603.622 605.622L626.391 168.391Z" fill="url(#paint0_radial_1090_3091)"/>
<path d="M648.66 605.647L648.684 606.098L649.134 606.121L1076.78 628.391L649.134 650.66L648.684 650.684L648.66 651.134L626.391 1078.78L604.121 651.134L604.098 650.684L603.647 650.66L175.999 628.391L603.647 606.121L604.098 606.098L604.121 605.647L626.391 177.999L648.66 605.647Z" stroke="#F5F5F5" stroke-opacity="0.6"/>
<path d="M442.616 444.616L628.484 612.084L814.352 444.616L646.884 630.484L814.352 816.352L628.484 648.884L442.616 816.352L610.084 630.484L442.616 444.616Z" fill="url(#paint1_radial_1090_3091)"/>
<path d="M628.149 612.456L628.484 612.758L628.819 612.456L807.55 451.417L646.512 630.149L646.211 630.484L646.512 630.819L807.55 809.552L628.819 648.513L628.484 648.211L628.149 648.513L449.417 809.551L610.455 630.819L610.757 630.484L610.455 630.149L449.417 451.418L628.149 612.456Z" stroke="#F5F5F5" stroke-opacity="0.6"/>
<path d="M583.479 419.176L629.492 600.8L714.648 433.908L645.118 607.891L812.108 522.926L653.591 622.812L838.63 652.228L651.676 639.864L784.085 772.426L640.104 652.534L669.308 837.607L623.294 655.982L538.138 822.874L607.669 648.891L440.679 733.856L599.195 633.97L414.156 604.554L601.11 616.918L468.701 484.357L612.683 604.248L583.479 419.176Z" fill="url(#paint2_radial_1090_3091)"/>
<path d="M629.007 600.923L629.334 602.21L629.937 601.028L710.138 443.845L644.654 607.705L644.16 608.939L645.344 608.337L802.611 528.318L653.325 622.389L652.2 623.097L653.513 623.306L827.787 651.01L651.709 639.366L650.383 639.278L651.323 640.218L776.028 765.066L640.424 652.15L639.403 651.3L639.609 652.612L667.113 826.909L623.779 655.859L623.453 654.571L622.849 655.755L542.65 812.929L608.133 649.077L608.626 647.843L607.442 648.446L450.164 728.468L599.462 634.393L600.585 633.685L599.274 633.476L425.007 605.773L601.078 617.417L602.402 617.504L601.464 616.564L476.764 491.721L612.363 604.633L613.384 605.482L613.176 604.17L585.672 429.872L629.007 600.923Z" stroke="#F5F5F5" stroke-opacity="0.6"/>
<path d="M654.478 329.038L639.677 594.73L825.985 404.729L657.841 610.978L920.247 566.773L662.985 634.799L901.259 753.276L653.145 657.095L776.275 892.999L632.08 669.349L593.033 932.573L607.834 666.881L421.526 856.882L589.67 650.633L327.264 694.838L584.526 626.812L346.252 508.335L594.365 604.516L471.236 368.612L615.431 592.262L654.478 329.038Z" fill="url(#paint3_radial_1090_3091)"/>
<path d="M639.177 594.702L639.103 596.029L640.034 595.08L818.703 412.869L657.453 610.662L656.614 611.692L657.924 611.472L909.572 569.078L662.857 634.316L661.573 634.656L662.762 635.247L891.268 748.866L653.326 656.629L652.087 656.149L652.702 657.327L770.783 883.558L632.5 669.079L631.78 667.962L631.585 669.276L594.138 921.708L608.333 666.909L608.407 665.582L607.477 666.531L428.802 848.748L590.058 650.949L590.897 649.92L589.588 650.14L337.937 692.532L584.653 627.295L585.937 626.955L584.748 626.364L356.241 512.744L594.185 604.982L595.423 605.462L594.809 604.284L476.724 378.045L615.011 592.533L615.731 593.649L615.925 592.335L653.371 339.901L639.177 594.702Z" stroke="#F5F5F5" stroke-opacity="0.6"/>
</g>
<path d="M626.391 168.391L649.159 605.622L1086.39 628.391L649.159 651.159L626.391 1088.39L603.622 651.159L166.391 628.391L603.622 605.622L626.391 168.391Z" fill="url(#paint4_radial_1090_3091)"/>
<path d="M648.66 605.647L648.684 606.098L649.134 606.121L1076.78 628.391L649.134 650.66L648.684 650.684L648.66 651.134L626.391 1078.78L604.121 651.134L604.098 650.684L603.647 650.66L175.999 628.391L603.647 606.121L604.098 606.098L604.121 605.647L626.391 177.999L648.66 605.647Z" stroke="#F5F5F5" stroke-opacity="0.6"/>
<path d="M442.616 444.616L628.484 612.084L814.352 444.616L646.884 630.484L814.352 816.352L628.484 648.884L442.616 816.352L610.084 630.484L442.616 444.616Z" fill="url(#paint5_radial_1090_3091)"/>
<path d="M628.149 612.456L628.484 612.758L628.819 612.456L807.55 451.417L646.512 630.149L646.211 630.484L646.512 630.819L807.55 809.552L628.819 648.513L628.484 648.211L628.149 648.513L449.417 809.551L610.455 630.819L610.757 630.484L610.455 630.149L449.417 451.418L628.149 612.456Z" stroke="#F5F5F5" stroke-opacity="0.6"/>
<path d="M583.479 419.176L629.492 600.8L714.648 433.908L645.118 607.891L812.108 522.926L653.591 622.812L838.63 652.228L651.676 639.864L784.085 772.426L640.104 652.534L669.308 837.607L623.294 655.982L538.138 822.874L607.669 648.891L440.679 733.856L599.195 633.97L414.156 604.554L601.11 616.918L468.701 484.357L612.683 604.248L583.479 419.176Z" fill="url(#paint6_radial_1090_3091)"/>
<path d="M629.007 600.923L629.334 602.21L629.937 601.028L710.138 443.845L644.654 607.705L644.16 608.939L645.344 608.337L802.611 528.318L653.325 622.389L652.2 623.097L653.513 623.306L827.787 651.01L651.709 639.366L650.383 639.278L651.323 640.218L776.028 765.066L640.424 652.15L639.403 651.3L639.609 652.612L667.113 826.909L623.779 655.859L623.453 654.571L622.849 655.755L542.65 812.929L608.133 649.077L608.626 647.843L607.442 648.446L450.164 728.468L599.462 634.393L600.585 633.685L599.274 633.476L425.007 605.773L601.078 617.417L602.402 617.504L601.464 616.564L476.764 491.721L612.363 604.633L613.384 605.482L613.176 604.17L585.672 429.872L629.007 600.923Z" stroke="#F5F5F5" stroke-opacity="0.6"/>
<path d="M654.478 329.038L639.677 594.73L825.985 404.729L657.841 610.978L920.247 566.773L662.985 634.799L901.259 753.276L653.145 657.095L776.275 892.999L632.08 669.349L593.033 932.573L607.834 666.881L421.526 856.882L589.67 650.633L327.264 694.838L584.526 626.812L346.252 508.335L594.365 604.516L471.236 368.612L615.431 592.262L654.478 329.038Z" fill="url(#paint7_radial_1090_3091)"/>
<path d="M639.177 594.702L639.103 596.029L640.034 595.08L818.703 412.869L657.453 610.662L656.614 611.692L657.924 611.472L909.572 569.078L662.857 634.316L661.573 634.656L662.762 635.247L891.268 748.866L653.326 656.629L652.087 656.149L652.702 657.327L770.783 883.558L632.5 669.079L631.78 667.962L631.585 669.276L594.138 921.708L608.333 666.909L608.407 665.582L607.477 666.531L428.802 848.748L590.058 650.949L590.897 649.92L589.588 650.14L337.937 692.532L584.653 627.295L585.937 626.955L584.748 626.364L356.241 512.744L594.185 604.982L595.423 605.462L594.809 604.284L476.724 378.045L615.011 592.533L615.731 593.649L615.925 592.335L653.371 339.901L639.177 594.702Z" stroke="#F5F5F5" stroke-opacity="0.6"/>
<g filter="url(#filter2_f_1090_3091)">
<path d="M228.893 399.009L619.481 596.822L856.795 228.893L658.981 619.481L1026.91 856.794L636.322 658.981L399.009 1026.91L596.822 636.322L228.893 399.009Z" fill="url(#paint8_radial_1090_3091)"/>
<path d="M619.255 597.268L619.657 597.472L619.902 597.093L852.013 237.228L658.535 619.255L658.332 619.657L658.711 619.902L1018.58 852.013L636.548 658.535L636.146 658.332L635.902 658.71L403.79 1018.58L597.268 636.548L597.472 636.146L597.093 635.902L237.227 403.79L619.255 597.268Z" stroke="#F5F5F5" stroke-opacity="0.6"/>
<path d="M377.049 695.865L614.799 617.972L562.022 373.417L639.915 611.167L884.47 558.39L646.72 636.283L699.497 880.838L621.604 643.088L377.049 695.865Z" fill="url(#paint9_radial_1090_3091)"/>
<path d="M614.955 618.448L615.383 618.307L615.288 617.867L564.537 382.701L639.44 611.323L639.58 611.752L640.021 611.656L875.186 560.906L646.564 635.808L646.136 635.949L646.231 636.389L696.981 871.555L622.079 642.933L621.939 642.504L621.498 642.599L386.333 693.35L614.955 618.448Z" stroke="#F5F5F5" stroke-opacity="0.6"/>
<path d="M425.074 561.02L605.513 611.482L503.122 454.572L619.439 601.457L628.832 414.33L636.598 601.532L754.188 455.664L650.436 611.678L831.307 562.786L655.668 628.02L830.733 694.779L650.294 644.316L752.685 801.227L636.369 654.342L626.975 841.469L619.209 654.267L501.62 800.135L605.371 644.121L424.5 693.013L600.14 627.779L425.074 561.02Z" fill="url(#paint10_radial_1090_3091)"/>
<path d="M605.378 611.964L606.658 612.321L605.932 611.209L509.498 463.43L619.047 601.767L619.871 602.809L619.939 601.482L628.784 425.251L636.099 601.552L636.153 602.88L636.987 601.845L747.736 464.463L650.02 611.401L649.284 612.507L650.567 612.16L820.914 566.113L655.494 627.551L654.249 628.014L655.49 628.488L820.362 691.36L650.429 643.835L649.15 643.477L649.876 644.59L746.304 792.364L636.761 654.032L635.936 652.99L635.87 654.317L627.021 830.56L619.709 654.247L619.654 652.919L618.82 653.954L508.076 791.329L605.788 644.398L606.523 643.292L605.24 643.638L434.9 689.684L600.314 628.247L601.559 627.785L600.317 627.312L435.444 564.439L605.378 611.964Z" stroke="#F5F5F5" stroke-opacity="0.6"/>
<path d="M382.216 454.583L605.315 599.628L533.212 343.479L628.447 591.957L720.675 342.347L651.67 599.348L873.001 451.62L666.113 618.978L932.007 629.558L666.26 643.348L875.154 808.196L652.055 663.15L724.158 919.299L628.923 670.821L536.695 920.431L605.7 663.43L384.369 811.159L591.257 643.801L325.364 633.22L591.11 619.43L382.216 454.583Z" fill="url(#paint11_radial_1090_3091)"/>
<path d="M605.043 600.047L606.156 600.772L605.797 599.492L536.649 353.846L627.98 592.137L628.455 593.377L628.917 592.131L717.362 352.753L651.187 599.219L650.843 600.502L651.947 599.764L864.205 458.092L665.799 618.588L664.766 619.425L666.093 619.478L921.085 629.624L666.235 642.848L664.908 642.918L665.951 643.74L866.28 801.831L652.327 662.731L651.214 662.007L651.574 663.286L720.723 908.941L629.39 670.642L628.915 669.402L628.454 670.647L540.006 910.026L606.183 663.56L606.527 662.277L605.423 663.015L393.164 804.687L591.572 644.19L592.604 643.354L591.276 643.301L336.276 633.154L591.136 619.93L592.462 619.861L591.419 619.038L391.088 460.948L605.043 600.047Z" stroke="#F5F5F5" stroke-opacity="0.6"/>
</g>
<path d="M228.893 399.009L619.481 596.822L856.795 228.893L658.981 619.481L1026.91 856.794L636.322 658.981L399.009 1026.91L596.822 636.322L228.893 399.009Z" fill="url(#paint12_radial_1090_3091)"/>
<path d="M619.255 597.268L619.657 597.472L619.902 597.093L852.013 237.228L658.535 619.255L658.332 619.657L658.711 619.902L1018.58 852.013L636.548 658.535L636.146 658.332L635.902 658.71L403.79 1018.58L597.268 636.548L597.472 636.146L597.093 635.902L237.227 403.79L619.255 597.268Z" stroke="#F5F5F5" stroke-opacity="0.6"/>
<path d="M377.049 695.865L614.799 617.972L562.022 373.417L639.915 611.167L884.47 558.39L646.72 636.283L699.497 880.838L621.604 643.088L377.049 695.865Z" fill="url(#paint13_radial_1090_3091)"/>
<path d="M614.955 618.448L615.383 618.307L615.288 617.867L564.537 382.701L639.44 611.323L639.58 611.752L640.021 611.656L875.186 560.906L646.564 635.808L646.136 635.949L646.231 636.389L696.981 871.555L622.079 642.933L621.939 642.504L621.498 642.599L386.333 693.35L614.955 618.448Z" stroke="#F5F5F5" stroke-opacity="0.6"/>
<path d="M425.074 561.02L605.513 611.482L503.122 454.572L619.439 601.457L628.832 414.33L636.598 601.532L754.188 455.664L650.436 611.678L831.307 562.786L655.668 628.02L830.733 694.779L650.294 644.316L752.685 801.227L636.369 654.342L626.975 841.469L619.209 654.267L501.62 800.135L605.371 644.121L424.5 693.013L600.14 627.779L425.074 561.02Z" fill="url(#paint14_radial_1090_3091)"/>
<path d="M605.378 611.964L606.658 612.321L605.932 611.209L509.498 463.43L619.047 601.767L619.871 602.809L619.939 601.482L628.784 425.251L636.099 601.552L636.153 602.88L636.987 601.845L747.736 464.463L650.02 611.401L649.284 612.507L650.567 612.16L820.914 566.113L655.494 627.551L654.249 628.014L655.49 628.488L820.362 691.36L650.429 643.835L649.15 643.477L649.876 644.59L746.304 792.364L636.761 654.032L635.936 652.99L635.87 654.317L627.021 830.56L619.709 654.247L619.654 652.919L618.82 653.954L508.076 791.329L605.788 644.398L606.523 643.292L605.24 643.638L434.9 689.684L600.314 628.247L601.559 627.785L600.317 627.312L435.444 564.439L605.378 611.964Z" stroke="#F5F5F5" stroke-opacity="0.6"/>
<path d="M382.216 454.583L605.315 599.628L533.212 343.479L628.447 591.957L720.675 342.347L651.67 599.348L873.001 451.62L666.113 618.978L932.007 629.558L666.26 643.348L875.154 808.196L652.055 663.15L724.158 919.299L628.923 670.821L536.695 920.431L605.7 663.43L384.369 811.159L591.257 643.801L325.364 633.22L591.11 619.43L382.216 454.583Z" fill="url(#paint15_radial_1090_3091)"/>
<path d="M605.043 600.047L606.156 600.772L605.797 599.492L536.649 353.846L627.98 592.137L628.455 593.377L628.917 592.131L717.362 352.753L651.187 599.219L650.843 600.502L651.947 599.764L864.205 458.092L665.799 618.588L664.766 619.425L666.093 619.478L921.085 629.624L666.235 642.848L664.908 642.918L665.951 643.74L866.28 801.831L652.327 662.731L651.214 662.007L651.574 663.286L720.723 908.941L629.39 670.642L628.915 669.402L628.454 670.647L540.006 910.026L606.183 663.56L606.527 662.277L605.423 663.015L393.164 804.687L591.572 644.19L592.604 643.354L591.276 643.301L336.276 633.154L591.136 619.93L592.462 619.861L591.419 619.038L391.088 460.948L605.043 600.047Z" stroke="#F5F5F5" stroke-opacity="0.6"/>
</g>
<g filter="url(#filter3_f_1090_3091)">
<path d="M749 642C749 711.036 693.036 767 624 767C554.964 767 499 711.036 499 642C499 572.964 554.964 517 624 517C693.036 517 749 572.964 749 642Z" fill="#F5F5F5"/>
</g>
<defs>
<filter id="filter0_f_1090_3091" x="158.591" y="160.591" width="935.6" height="935.6" filterUnits="userSpaceOnUse" color-interpolation-filters="sRGB">
<feFlood flood-opacity="0" result="BackgroundImageFix"/>
<feBlend mode="normal" in="SourceGraphic" in2="BackgroundImageFix" result="shape"/>
<feGaussianBlur stdDeviation="3.9" result="effect1_foregroundBlur_1090_3091"/>
</filter>
<filter id="filter1_f_1090_3091" x="156.391" y="158.391" width="940" height="940" filterUnits="userSpaceOnUse" color-interpolation-filters="sRGB">
<feFlood flood-opacity="0" result="BackgroundImageFix"/>
<feBlend mode="normal" in="SourceGraphic" in2="BackgroundImageFix" result="shape"/>
<feGaussianBlur stdDeviation="5" result="effect1_foregroundBlur_1090_3091"/>
</filter>
<filter id="filter2_f_1090_3091" x="218.893" y="218.893" width="818.018" height="818.018" filterUnits="userSpaceOnUse" color-interpolation-filters="sRGB">
<feFlood flood-opacity="0" result="BackgroundImageFix"/>
<feBlend mode="normal" in="SourceGraphic" in2="BackgroundImageFix" result="shape"/>
<feGaussianBlur stdDeviation="5" result="effect1_foregroundBlur_1090_3091"/>
</filter>
<filter id="filter3_f_1090_3091" x="469.6" y="487.6" width="308.8" height="308.8" filterUnits="userSpaceOnUse" color-interpolation-filters="sRGB">
<feFlood flood-opacity="0" result="BackgroundImageFix"/>
<feBlend mode="normal" in="SourceGraphic" in2="BackgroundImageFix" result="shape"/>
<feGaussianBlur stdDeviation="14.7" result="effect1_foregroundBlur_1090_3091"/>
</filter>
<radialGradient id="paint0_radial_1090_3091" cx="0" cy="0" r="1" gradientUnits="userSpaceOnUse" gradientTransform="translate(626.391 628.391) rotate(90) scale(460)">
<stop stop-color="#FFCF32"/>
<stop offset="1" stop-color="#F5F5F5"/>
</radialGradient>
<radialGradient id="paint1_radial_1090_3091" cx="0" cy="0" r="1" gradientUnits="userSpaceOnUse" gradientTransform="translate(628.484 630.484) rotate(45) scale(262.857)">
<stop stop-color="#FFCF32"/>
<stop offset="1" stop-color="#F5F5F5"/>
</radialGradient>
<radialGradient id="paint2_radial_1090_3091" cx="0" cy="0" r="1" gradientUnits="userSpaceOnUse" gradientTransform="translate(626.393 628.391) rotate(78.4082) scale(213.571 203.119)">
<stop stop-color="#FFCF32"/>
<stop offset="1" stop-color="#F5F5F5"/>
</radialGradient>
<radialGradient id="paint3_radial_1090_3091" cx="0" cy="0" r="1" gradientUnits="userSpaceOnUse" gradientTransform="translate(623.755 630.806) rotate(95.8132) scale(303.327 288.481)">
<stop stop-color="#FFCF32"/>
<stop offset="1" stop-color="#F5F5F5"/>
</radialGradient>
<radialGradient id="paint4_radial_1090_3091" cx="0" cy="0" r="1" gradientUnits="userSpaceOnUse" gradientTransform="translate(626.391 628.391) rotate(90) scale(460)">
<stop stop-color="#FFCF32"/>
<stop offset="1" stop-color="#F5F5F5"/>
</radialGradient>
<radialGradient id="paint5_radial_1090_3091" cx="0" cy="0" r="1" gradientUnits="userSpaceOnUse" gradientTransform="translate(628.484 630.484) rotate(45) scale(262.857)">
<stop stop-color="#FFCF32"/>
<stop offset="1" stop-color="#F5F5F5"/>
</radialGradient>
<radialGradient id="paint6_radial_1090_3091" cx="0" cy="0" r="1" gradientUnits="userSpaceOnUse" gradientTransform="translate(626.393 628.391) rotate(78.4082) scale(213.571 203.119)">
<stop stop-color="#FFCF32"/>
<stop offset="1" stop-color="#F5F5F5"/>
</radialGradient>
<radialGradient id="paint7_radial_1090_3091" cx="0" cy="0" r="1" gradientUnits="userSpaceOnUse" gradientTransform="translate(623.755 630.806) rotate(95.8132) scale(303.327 288.481)">
<stop stop-color="#FFCF32"/>
<stop offset="1" stop-color="#F5F5F5"/>
</radialGradient>
<radialGradient id="paint8_radial_1090_3091" cx="0" cy="0" r="1" gradientUnits="userSpaceOnUse" gradientTransform="translate(627.902 627.902) rotate(29.8409) scale(460)">
<stop stop-color="#FFCF32"/>
<stop offset="1" stop-color="#F5F5F5"/>
</radialGradient>
<radialGradient id="paint9_radial_1090_3091" cx="0" cy="0" r="1" gradientUnits="userSpaceOnUse" gradientTransform="translate(630.76 627.128) rotate(-15.1591) scale(262.857)">
<stop stop-color="#FFCF32"/>
<stop offset="1" stop-color="#F5F5F5"/>
</radialGradient>
<radialGradient id="paint10_radial_1090_3091" cx="0" cy="0" r="1" gradientUnits="userSpaceOnUse" gradientTransform="translate(627.904 627.899) rotate(18.2491) scale(213.571 203.119)">
<stop stop-color="#FFCF32"/>
<stop offset="1" stop-color="#F5F5F5"/>
</radialGradient>
<radialGradient id="paint11_radial_1090_3091" cx="0" cy="0" r="1" gradientUnits="userSpaceOnUse" gradientTransform="translate(628.685 631.389) rotate(35.6541) scale(303.327 288.481)">
<stop stop-color="#FFCF32"/>
<stop offset="1" stop-color="#F5F5F5"/>
</radialGradient>
<radialGradient id="paint12_radial_1090_3091" cx="0" cy="0" r="1" gradientUnits="userSpaceOnUse" gradientTransform="translate(627.902 627.902) rotate(29.8409) scale(460)">
<stop stop-color="#FFCF32"/>
<stop offset="1" stop-color="#F5F5F5"/>
</radialGradient>
<radialGradient id="paint13_radial_1090_3091" cx="0" cy="0" r="1" gradientUnits="userSpaceOnUse" gradientTransform="translate(630.76 627.128) rotate(-15.1591) scale(262.857)">
<stop stop-color="#FFCF32"/>
<stop offset="1" stop-color="#F5F5F5"/>
</radialGradient>
<radialGradient id="paint14_radial_1090_3091" cx="0" cy="0" r="1" gradientUnits="userSpaceOnUse" gradientTransform="translate(627.904 627.899) rotate(18.2491) scale(213.571 203.119)">
<stop stop-color="#FFCF32"/>
<stop offset="1" stop-color="#F5F5F5"/>
</radialGradient>
<radialGradient id="paint15_radial_1090_3091" cx="0" cy="0" r="1" gradientUnits="userSpaceOnUse" gradientTransform="translate(628.685 631.389) rotate(35.6541) scale(303.327 288.481)">
<stop stop-color="#FFCF32"/>
<stop offset="1" stop-color="#F5F5F5"/>
</radialGradient>
</defs>
</svg>
