<svg width="24" height="24" viewBox="0 0 36 36" fill="none" xmlns="http://www.w3.org/2000/svg">
<path d="M31.3907 4.6095C30.879 4.09299 30.2412 3.71914 29.5406 3.52497C28.8399 3.3308 28.1007 3.32305 27.3962 3.5025L7.72666 8.421C6.47685 8.73286 5.3681 9.45571 4.57849 10.4735C3.78887 11.4912 3.3642 12.7448 3.37268 14.0329C3.38116 15.321 3.8223 16.5689 4.62524 17.5762C5.42819 18.5834 6.54635 19.2916 7.80016 19.587L14.7692 21.2265L16.4132 28.2C16.6939 29.4608 17.3975 30.5877 18.407 31.3935C19.4166 32.1992 20.6715 32.6354 21.9632 32.6295H22.0052C23.2896 32.6442 24.5408 32.2216 25.5532 31.4311C26.5657 30.6406 27.279 29.5292 27.5762 28.2795L32.4977 8.6025C32.677 7.89817 32.6692 7.15921 32.475 6.45883C32.2808 5.75845 31.907 5.12095 31.3907 4.6095ZM30.3137 8.0595L25.3967 27.726C25.2143 28.4906 24.7763 29.17 24.1552 29.6517C23.5341 30.1334 22.7671 30.3886 21.9812 30.375C21.1928 30.3847 20.4255 30.121 19.8096 29.6287C19.1938 29.1365 18.7674 28.4461 18.6032 27.675L16.9532 20.64L23.2952 14.295C23.4939 14.0817 23.6021 13.7997 23.5969 13.5082C23.5918 13.2168 23.4737 12.9387 23.2676 12.7326C23.0615 12.5264 22.7834 12.4084 22.4919 12.4032C22.2005 12.3981 21.9184 12.5063 21.7052 12.705L15.3557 19.05L8.32066 17.4C7.55757 17.2207 6.87689 16.7901 6.38799 16.1774C5.8991 15.5647 5.63038 14.8054 5.62502 14.0215C5.61965 13.2377 5.87795 12.4748 6.35841 11.8554C6.83887 11.2361 7.51359 10.7962 8.27416 10.6065L27.9422 5.6865C28.0996 5.64673 28.2613 5.62657 28.4237 5.6265C28.7208 5.62644 29.014 5.69428 29.2809 5.82483C29.5478 5.95538 29.7813 6.14519 29.9636 6.37977C30.146 6.61436 30.2723 6.8875 30.333 7.17836C30.3936 7.46921 30.387 7.77158 30.3137 8.0595Z" fill="white"/>
</svg>
