<svg width="16" height="16" viewBox="0 0 16 16" fill="none" xmlns="http://www.w3.org/2000/svg">
<path fill-rule="evenodd" clip-rule="evenodd" d="M3.34883 7.99993C3.34883 7.48031 3.43701 6.98215 3.59441 6.51489L0.839439 4.45605C0.302511 5.52293 0 6.72507 0 7.99993C0 9.27371 0.302139 10.4751 0.838323 11.5413L3.5918 9.47843C3.4359 9.01335 3.34883 8.517 3.34883 7.99993Z" fill="#FBBC05"/>
<path fill-rule="evenodd" clip-rule="evenodd" d="M8.18594 3.27261C9.33942 3.27261 10.3813 3.6726 11.1999 4.32712L13.5813 1.99993C12.1301 0.76361 10.2697 0 8.18594 0C4.95097 0 2.1707 1.81048 0.839355 4.45585L3.59432 6.51468C4.22911 4.62893 6.03859 3.27261 8.18594 3.27261Z" fill="#EB4335"/>
<path fill-rule="evenodd" clip-rule="evenodd" d="M8.18594 12.7274C6.03859 12.7274 4.22911 11.3711 3.59432 9.48535L0.839355 11.5438C2.1707 14.1896 4.95097 16 8.18594 16C10.1826 16 12.0888 15.3062 13.5195 14.0063L10.9044 12.0278C10.1666 12.4827 9.23747 12.7274 8.18594 12.7274Z" fill="#34A853"/>
<path fill-rule="evenodd" clip-rule="evenodd" d="M16 7.99942C16 7.52671 15.9255 7.01763 15.8139 6.54492H8.18604V9.63572H12.5767C12.3572 10.6895 11.7596 11.4997 10.9045 12.0269L13.5196 14.0054C15.0225 12.6403 16 10.607 16 7.99942Z" fill="#4285F4"/>
</svg>
