<svg width="14" height="14" viewBox="0 0 14 14" fill="none" xmlns="http://www.w3.org/2000/svg">
<path d="M2.62233 4.34058C2.06918 4.73549 1.6207 5.15776 1.27705 5.52993C0.500099 6.37135 0.5001 7.62878 1.27705 8.47018C2.2847 9.56148 4.19341 11.0834 6.99995 11.0834C7.75584 11.0834 8.44656 10.973 9.07213 10.7904L8.10216 9.82042C7.75455 9.88225 7.38717 9.91673 6.99995 9.91673C4.64731 9.91673 3.02647 8.64506 2.13418 7.67871C1.76994 7.28426 1.76994 6.71586 2.13418 6.32141C2.47185 5.95572 2.91386 5.5463 3.46037 5.17862L2.62233 4.34058Z" fill="white"/>
<path d="M4.9776 6.6958C4.96276 6.79508 4.95508 6.89664 4.95508 7.00007C4.95508 8.12765 5.86917 9.04173 6.99675 9.04173C7.10012 9.04173 7.20173 9.03403 7.30102 9.01922L4.9776 6.6958Z" fill="white"/>
<path d="M9.02193 7.26073L6.73596 4.97475C6.82136 4.96386 6.9084 4.95825 6.99677 4.95825C8.12435 4.95825 9.03844 5.87234 9.03844 6.99992C9.03844 7.08829 9.03284 7.17533 9.02193 7.26073Z" fill="white"/>
<path d="M10.5652 8.80421C11.0999 8.44103 11.5334 8.03871 11.8658 7.67873C12.23 7.28428 12.23 6.71588 11.8658 6.32143C10.9735 5.35509 9.35267 4.08341 7.00003 4.08341C6.62635 4.08341 6.27116 4.11549 5.9344 4.17334L4.96118 3.20014C5.57792 3.02326 6.25756 2.91675 7.00003 2.91675C9.80656 2.91675 11.7153 4.43869 12.7229 5.52995C13.4999 6.37136 13.4999 7.6288 12.7229 8.4702C12.3845 8.83676 11.9444 9.25192 11.4027 9.64165L10.5652 8.80421Z" fill="white"/>
<path d="M1.17122 1.9963C0.943414 1.7685 0.943414 1.39915 1.17122 1.17135C1.39903 0.943536 1.76838 0.943536 1.99618 1.17135L12.8335 12.0087C13.0614 12.2365 13.0614 12.6059 12.8335 12.8337C12.6057 13.0615 12.2364 13.0615 12.0086 12.8337L1.17122 1.9963Z" fill="white"/>
</svg>
