<svg width="32" height="32" viewBox="0 0 32 32" fill="none" xmlns="http://www.w3.org/2000/svg">
<path d="M7.31515 13.7262C7.47758 13.5644 7.65379 13.4278 7.83918 13.3089L20.2413 0.907388C21.4512 -0.301946 23.4142 -0.30252 24.6246 0.907962C25.8351 2.11787 25.8351 4.08024 24.6246 5.2913L13.9438 15.9721L24.6797 26.7086C25.8902 27.9185 25.8902 29.8803 24.6797 31.092C24.0742 31.6981 23.2804 32 22.4884 32C21.6963 32 20.9019 31.6981 20.297 31.092L7.83918 18.633C7.65379 18.5142 7.47643 18.3776 7.31515 18.2157C6.69642 17.597 6.39796 16.782 6.41289 15.971C6.39796 15.16 6.69642 14.3455 7.31515 13.7262Z" fill="white"/>
</svg>
