<svg width="24" height="24" viewBox="0 0 24 24" fill="none" xmlns="http://www.w3.org/2000/svg">
<path d="M17.7301 22.5H4.36011V5.32L15.5701 1.58C15.7352 1.52827 15.9071 1.50131 16.0801 1.5C16.516 1.49999 16.9342 1.67246 17.2433 1.97973C17.5525 2.28701 17.7275 2.70413 17.7301 3.14V5.32C18.2367 5.32 18.7225 5.52123 19.0807 5.87943C19.4389 6.23762 19.6401 6.72344 19.6401 7.23V20.59C19.6401 21.0966 19.4389 21.5824 19.0807 21.9406C18.7225 22.2988 18.2367 22.5 17.7301 22.5Z" stroke="#FBFEFF" stroke-width="1.2" stroke-miterlimit="10"/>
<path d="M17.7301 5.32007C18.2367 5.32007 18.7225 5.5213 19.0807 5.87949C19.4389 6.23769 19.6401 6.7235 19.6401 7.23007V20.5901C19.6401 21.0966 19.4389 21.5824 19.0807 21.9406C18.7225 22.2988 18.2367 22.5001 17.7301 22.5001H4.36011V5.32007" stroke="#FBFEFF" stroke-width="1.2" stroke-miterlimit="10"/>
<path d="M13.7399 9.13993C13.4108 9.12986 13.0835 9.19382 12.7824 9.32709C12.4812 9.46036 12.2138 9.65954 11.9999 9.90993C11.786 9.65954 11.5186 9.46036 11.2175 9.32709C10.9163 9.19382 10.5891 9.12986 10.2599 9.13993C9.75823 9.09515 9.25902 9.24932 8.86993 9.56919C8.48083 9.88907 8.23303 10.349 8.17993 10.8499C8.17993 13.4299 11.9999 14.8499 11.9999 14.8499C11.9999 14.8499 15.8199 13.4199 15.8199 10.8499C15.7668 10.349 15.519 9.88907 15.1299 9.56919C14.7408 9.24932 14.2416 9.09515 13.7399 9.13993Z" stroke="#FBFEFF" stroke-width="1.2" stroke-miterlimit="10"/>
<path d="M8.17993 18.6799H15.8199" stroke="#FBFEFF" stroke-width="1.2" stroke-miterlimit="10"/>
<path d="M17.7301 5.32007H4.36011" stroke="#FBFEFF" stroke-width="1.2" stroke-miterlimit="10"/>
</svg>
