<svg width="24" height="24" viewBox="0 0 24 24" fill="none" xmlns="http://www.w3.org/2000/svg">
<path d="M19.83 7.50015L17.56 5.23015C17.63 4.81015 17.74 4.42015 17.88 4.08015C17.99 3.82015 18.03 3.52015 17.97 3.21015C17.84 2.49015 17.14 1.99015 16.4 2.00015C14.81 2.03015 13.4 2.81015 12.5 4.00015H7.5C4.46 4.00015 2 6.46015 2 9.50015C2 11.7501 3.37 16.9801 4.08 19.5401C4.32 20.4001 5.11 21.0001 6.01 21.0001H8C9.1 21.0001 10 20.1001 10 19.0001H12C12 20.1001 12.9 21.0001 14 21.0001H16.01C16.89 21.0001 17.67 20.4201 17.93 19.5701L19.18 15.4101L21.32 14.6901C21.73 14.5501 22 14.1701 22 13.7401V8.50015C22 7.95015 21.55 7.50015 21 7.50015H19.83ZM12 9.00015H9C8.45 9.00015 8 8.55015 8 8.00015C8 7.45015 8.45 7.00015 9 7.00015H12C12.55 7.00015 13 7.45015 13 8.00015C13 8.55015 12.55 9.00015 12 9.00015ZM16 11.0001C15.45 11.0001 15 10.5501 15 10.0001C15 9.45015 15.45 9.00015 16 9.00015C16.55 9.00015 17 9.45015 17 10.0001C17 10.5501 16.55 11.0001 16 11.0001Z" fill="white"/>
</svg>
