<svg width="24" height="24" viewBox="0 0 24 24" fill="none" xmlns="http://www.w3.org/2000/svg">
<path d="M20.8125 8.9625V20.0625C20.8125 20.2614 20.7335 20.4522 20.5928 20.5928C20.4522 20.7335 20.2614 20.8125 20.0625 20.8125H3.9375C3.73859 20.8125 3.54782 20.7335 3.40717 20.5928C3.26652 20.4522 3.1875 20.2614 3.1875 20.0625V3.9375C3.1875 3.73859 3.26652 3.54782 3.40717 3.40717C3.54782 3.26652 3.73859 3.1875 3.9375 3.1875H15.615" stroke="#FBFEFF" stroke-width="1.5"/>
<path d="M7.30498 14.5388L7.06498 16.6351C7.0597 16.6818 7.06495 16.7292 7.08037 16.7737C7.09578 16.8181 7.12096 16.8585 7.15405 16.892C7.18714 16.9255 7.22731 16.9511 7.2716 16.967C7.31588 16.9829 7.36317 16.9886 7.40998 16.9838L9.49498 16.7438C9.56563 16.7351 9.63147 16.7035 9.68248 16.6538L20.5875 5.70759C20.6454 5.64977 20.6914 5.58109 20.7228 5.50548C20.7541 5.42987 20.7703 5.34882 20.7703 5.26697C20.7703 5.18511 20.7541 5.10406 20.7228 5.02845C20.6914 4.95284 20.6454 4.88416 20.5875 4.82634L19.1812 3.41259C19.0638 3.29535 18.9047 3.22949 18.7387 3.22949C18.5728 3.22949 18.4137 3.29535 18.2962 3.41259L7.39123 14.3551C7.34276 14.405 7.31239 14.4697 7.30498 14.5388Z" stroke="#FBFEFF" stroke-width="1.5"/>
<path d="M16.8262 4.88989L19.0874 7.21489" stroke="#FBFEFF" stroke-width="1.5"/>
</svg>
