<svg width="24" height="24" viewBox="0 0 24 24" fill="none" xmlns="http://www.w3.org/2000/svg">
<path d="M22.4692 3.09819C22.4278 2.88 22.221 2.70545 22.0142 2.70545L19.428 2.95345C19.4415 2.84357 19.4492 2.7318 19.4492 2.61821C19.4492 1.17821 18.3323 0 16.967 0C15.6018 0 14.4848 1.17816 14.4848 2.61821C14.4848 2.87975 14.522 3.13245 14.5906 3.3712L8.69619 3.91184L1.99107 3.27273C1.9083 3.22909 1.78421 3.27273 1.70149 3.36003C1.57739 3.44733 1.53601 3.53457 1.53601 3.66547L0.00532719 21.9491C-0.0360541 22.211 0.170805 22.4291 0.377665 22.4291L5.86971 22.9186L5.87988 23.04C5.92126 23.1709 5.96264 23.2582 6.04535 23.3454C6.08673 23.3891 6.21083 23.4327 6.29359 23.4327L8.9405 23.1862L17.7117 24C17.96 24 18.1255 23.8255 18.1255 23.6073L18.2217 22.3217L23.6277 21.8182C23.7518 21.7745 23.8345 21.7309 23.9172 21.6436C23.9586 21.5563 24 21.4691 24 21.3382L22.4692 3.09819ZM16.967 0.872719C17.8772 0.872719 18.6218 1.65819 18.6218 2.61816C18.6218 2.81855 18.5889 3.01114 18.5293 3.19073C18.5157 3.21554 18.5048 3.24273 18.4977 3.27268C18.266 3.88346 17.7102 4.30398 17.099 4.35747C17.0932 4.35796 17.0875 4.35846 17.0816 4.35885C17.0436 4.36177 17.0054 4.36355 16.967 4.36355C16.935 4.36355 16.9032 4.36226 16.8715 4.36038C16.8563 4.35944 16.8411 4.35806 16.8259 4.35668C16.812 4.35549 16.7982 4.3541 16.7844 4.35257C16.4362 4.31179 16.1198 4.15583 15.8703 3.92192C15.8532 3.8931 15.8329 3.86547 15.8086 3.83987C15.7843 3.81426 15.7581 3.79286 15.7308 3.77476C15.6674 3.69948 15.61 3.61851 15.5594 3.5325C15.5491 3.51095 15.5382 3.49137 15.5266 3.47367C15.3904 3.22039 15.3122 2.92844 15.3122 2.61801C15.3122 1.65819 16.0569 0.872719 16.967 0.872719ZM0.8741 21.5564L2.32202 4.1891L4.47324 4.40729L4.43186 4.45094C4.39048 4.53824 4.3491 4.62549 4.3491 4.75638L5.79205 21.9923L0.8741 21.5564ZM17.3393 23.0836L13.6822 22.7445L17.3798 22.4001L17.3393 23.0836ZM6.66589 22.4728L5.22152 5.14877L8.85848 4.80003C8.91861 4.80003 8.97504 4.7812 9.02513 4.74966L14.8864 4.20181L12.9541 6.23998C12.7886 6.41452 12.7886 6.67636 12.9541 6.85091C13.0369 6.9382 13.1196 6.9818 13.2437 6.9818C13.3678 6.9818 13.4505 6.93815 13.5333 6.85091L15.5278 4.74714C15.9345 5.05446 16.4314 5.23636 16.967 5.23636C17.9317 5.23636 18.7718 4.64768 19.1821 3.79444L21.6832 3.57822L23.1311 20.9455L6.66589 22.4728Z" fill="white"/>
<path d="M18.2909 10.08L19.5734 9.94914C19.7802 9.90549 19.9457 9.68729 19.9457 9.46915C19.9043 9.25096 19.6975 9.07642 19.4906 9.07642L18.2495 9.20731C18.0427 9.25096 17.8772 9.46915 17.8772 9.68729C17.8772 9.90549 18.0841 10.08 18.2909 10.08Z" fill="white"/>
<path d="M13.7401 10.5164L16.6774 10.2546C16.8842 10.2109 17.0497 9.99272 17.0497 9.77458C17.0083 9.55638 16.8015 9.33819 16.5946 9.38184L13.6988 9.64368C13.4919 9.68733 13.3264 9.90552 13.3264 10.1237C13.3678 10.3419 13.5333 10.5164 13.7401 10.5164Z" fill="white"/>
<path d="M12.1681 10.6474C12.3749 10.6037 12.5404 10.3855 12.5404 10.1674C12.499 9.94921 12.3336 9.73101 12.0854 9.77466L8.36208 10.1238C8.15522 10.1674 7.98975 10.3856 7.98975 10.6037C8.03113 10.8219 8.19661 10.9965 8.40347 10.9965L12.1681 10.6474Z" fill="white"/>
<path d="M19.6974 11.6946L16.8015 11.9564C16.5947 12.0001 16.4292 12.2183 16.4292 12.4364C16.4706 12.6546 16.6361 12.8291 16.8429 12.8291L19.7802 12.5673C19.9871 12.5236 20.1525 12.3491 20.1525 12.0873C20.1111 11.8691 19.9043 11.651 19.6974 11.6946Z" fill="white"/>
<path d="M11.0925 12.9601C11.1339 13.1783 11.2994 13.3528 11.5062 13.3528L14.4435 13.091C14.6504 13.0473 14.8572 12.8291 14.8159 12.611C14.7745 12.3928 14.5676 12.2183 14.3608 12.2183L11.4649 12.4801C11.258 12.5237 11.0925 12.7419 11.0925 12.9601Z" fill="white"/>
<path d="M9.8927 13.4836C10.0996 13.4399 10.265 13.2217 10.265 13.0036C10.2237 12.7854 10.0582 12.5672 9.80998 12.6108L8.56887 12.7417C8.36201 12.7854 8.19653 13.0036 8.19653 13.2217C8.23791 13.4399 8.40339 13.6145 8.61025 13.6145L9.8927 13.4836Z" fill="white"/>
<path d="M19.9043 14.3127L19.0769 14.4C18.8701 14.4437 18.7046 14.6619 18.7046 14.88C18.7046 15.0982 18.9114 15.2728 19.1183 15.2728L19.9871 15.1855C20.1939 15.1418 20.3594 14.9236 20.3594 14.7055C20.318 14.4873 20.1111 14.2691 19.9043 14.3127Z" fill="white"/>
<path d="M17.4634 14.531L13.3264 14.9237C13.1196 14.9674 12.9541 15.1856 12.9541 15.4037C12.9955 15.6219 13.161 15.7965 13.3678 15.7965L17.5462 15.4037C17.7531 15.3601 17.9599 15.1419 17.9185 14.9237C17.8772 14.7056 17.6703 14.4874 17.4634 14.531Z" fill="white"/>
<path d="M10.8442 15.1856L8.77566 15.3601C8.5688 15.4037 8.40332 15.6219 8.40332 15.8401C8.4447 16.0583 8.61018 16.2328 8.81704 16.2328L10.9269 16.0583C11.1338 16.0146 11.2993 15.7964 11.2993 15.5783C11.2579 15.3601 11.0924 15.1419 10.8442 15.1856Z" fill="white"/>
<path d="M20.1524 16.9309L16.0154 17.3236C15.8085 17.3673 15.6431 17.5855 15.6431 17.8036C15.6844 18.0218 15.8499 18.1964 16.0568 18.1964L20.2352 17.8036C20.442 17.76 20.6075 17.5418 20.6075 17.3236C20.5661 17.1055 20.3593 16.9309 20.1524 16.9309Z" fill="white"/>
<path d="M13.5332 17.5418L11.8784 17.6726C11.6716 17.7163 11.5061 17.9345 11.5061 18.1526C11.5475 18.3708 11.713 18.5454 11.9198 18.5454L13.616 18.4145C13.8228 18.3708 14.0297 18.1526 13.9883 17.9345C13.9469 17.7163 13.74 17.4981 13.5332 17.5418Z" fill="white"/>
<path d="M10.2238 17.8037L8.98269 17.9346C8.77583 17.9783 8.61035 18.1965 8.61035 18.4146C8.65173 18.6328 8.81721 18.8073 9.02407 18.8073L10.3066 18.6764C10.5134 18.6328 10.6789 18.4146 10.6789 18.1965C10.6375 17.9783 10.472 17.7601 10.2238 17.8037Z" fill="white"/>
</svg>
