<svg width="32" height="32" viewBox="0 0 32 32" fill="none" xmlns="http://www.w3.org/2000/svg">
<path d="M24.6842 13.727C24.5235 13.5652 24.3455 13.4286 24.1607 13.3098L11.7578 0.907404C10.5473 -0.301951 8.58545 -0.302525 7.37437 0.907978C6.16387 2.11791 6.16387 4.08031 7.37437 5.29139L18.0565 15.9724L7.32042 26.7097C6.10934 27.919 6.10934 29.882 7.32042 31.0931C7.92596 31.6975 8.71861 32 9.51126 32C10.3039 32 11.0983 31.6975 11.7021 31.0919L24.1607 18.6351C24.3455 18.5162 24.5229 18.3802 24.6842 18.2178C25.3041 17.5979 25.6014 16.784 25.5876 15.9724C25.6019 15.1602 25.3041 14.3452 24.6842 13.727Z" fill="white" fill-opacity="0.2"/>
</svg>
