<svg width="14" height="14" viewBox="0 0 14 14" fill="none" xmlns="http://www.w3.org/2000/svg">
<path fill-rule="evenodd" clip-rule="evenodd" d="M6.99675 9.04158C8.12433 9.04158 9.03842 8.1275 9.03842 6.99992C9.03842 5.87234 8.12433 4.95825 6.99675 4.95825C5.86917 4.95825 4.95508 5.87234 4.95508 6.99992C4.95508 8.1275 5.86917 9.04158 6.99675 9.04158ZM6.99675 7.87165C6.51533 7.87165 6.12502 7.48134 6.12502 6.99992C6.12502 6.51849 6.51533 6.12819 6.99675 6.12819C7.47818 6.12819 7.86848 6.51849 7.86848 6.99992C7.86848 7.48134 7.47818 7.87165 6.99675 7.87165Z" fill="white"/>
<path fill-rule="evenodd" clip-rule="evenodd" d="M6.99995 2.91675C4.19341 2.91675 2.2847 4.43869 1.27705 5.52995C0.500099 6.37136 0.5001 7.6288 1.27705 8.4702C2.2847 9.5615 4.19341 11.0834 6.99995 11.0834C9.80649 11.0834 11.7152 9.5615 12.7229 8.4702C13.4998 7.6288 13.4998 6.37136 12.7229 5.52995C11.7152 4.43869 9.80649 2.91675 6.99995 2.91675ZM2.13418 6.32143C3.02647 5.35509 4.64731 4.08341 6.99995 4.08341C9.35259 4.08341 10.9734 5.35509 11.8657 6.32143C12.2299 6.71588 12.2299 7.28428 11.8657 7.67873C10.9734 8.64508 9.35259 9.91675 6.99995 9.91675C4.64731 9.91675 3.02647 8.64508 2.13418 7.67873C1.76994 7.28428 1.76994 6.71588 2.13418 6.32143Z" fill="white"/>
</svg>
