<svg width="48" height="48" viewBox="0 0 48 48" fill="none" xmlns="http://www.w3.org/2000/svg">
<path d="M31.5712 30.6638L30.8042 26.1921L36.3643 20.7725C36.6003 20.5425 36.6851 20.1984 36.5833 19.8852C36.4815 19.572 36.2106 19.3436 35.8848 19.2963L28.2009 18.1799L24.7646 11.2172C24.6189 10.9219 24.3181 10.7349 23.9887 10.7349C23.6593 10.7349 23.3585 10.9219 23.2128 11.2172L19.7765 18.1799L12.0929 19.2963C11.7671 19.3437 11.4961 19.572 11.3944 19.8852C11.2927 20.1984 11.3775 20.5425 11.6134 20.7725L17.1735 26.1921L15.8608 33.8446C15.8052 34.1691 15.9386 34.4973 16.2053 34.6909C16.4716 34.8845 16.825 34.9101 17.1166 34.7568L23.989 31.1439L30.8614 34.7568C30.988 34.8235 31.1263 34.8562 31.2642 34.8562C31.4434 34.8562 31.622 34.8004 31.7729 34.6909C32.0396 34.4973 32.1729 34.169 32.1174 33.8446L31.5712 30.6638Z" fill="white"/>
<path d="M16.8836 4.05374C16.8385 3.9149 16.7184 3.81365 16.5741 3.79284L13.1702 3.29812L11.6478 0.21375C11.5832 0.0827811 11.45 0 11.304 0C11.158 0 11.0248 0.0827811 10.9602 0.21375L9.43781 3.29812L6.03375 3.79284C5.88947 3.81384 5.76938 3.9149 5.72429 4.05374C5.67929 4.1924 5.71688 4.34474 5.82132 4.44665L8.2845 6.84758L7.70297 10.2379C7.67831 10.3818 7.73738 10.527 7.8555 10.6129C7.97363 10.6986 8.13019 10.71 8.25928 10.642L11.3039 9.04142L14.3484 10.642C14.4045 10.6714 14.4659 10.6861 14.5269 10.6861C14.6063 10.6861 14.6855 10.6613 14.7523 10.6129C14.8702 10.5271 14.9294 10.3817 14.9049 10.2379L14.3233 6.84749L16.7865 4.44665C16.891 4.34474 16.9287 4.19249 16.8836 4.05374Z" fill="white"/>
<path d="M28.169 43.0312C28.1353 42.9273 28.0453 42.8515 27.9372 42.8358L25.387 42.4653L24.2464 40.1545C24.1983 40.0564 24.0983 39.9944 23.989 39.9944C23.8797 39.9944 23.7799 40.0564 23.7315 40.1545L22.5912 42.4653L20.041 42.8358C19.9329 42.8515 19.8428 42.9273 19.809 43.0312C19.7752 43.1352 19.8034 43.2494 19.8817 43.3257L21.7271 45.1244L21.2913 47.6641C21.273 47.7718 21.3171 47.8807 21.4055 47.945C21.494 48.0093 21.6113 48.0177 21.708 47.9669L23.9888 46.7676L26.2698 47.9669C26.3117 47.9889 26.3577 47.9997 26.4033 47.9997C26.4627 47.9997 26.5224 47.9813 26.5721 47.9449C26.6606 47.8806 26.7048 47.7717 26.6866 47.664L26.2508 45.1243L28.0962 43.3256C28.1747 43.2493 28.2028 43.1351 28.169 43.0312Z" fill="white"/>
<g opacity="0.1">
<path d="M18.684 33.0057L19.9967 25.3532L14.4366 19.9336C14.2007 19.7036 14.1159 19.3595 14.2176 19.0463C14.2246 19.0248 14.2343 19.0047 14.2429 18.9839L12.0929 19.2964C11.7671 19.3438 11.4961 19.5721 11.3944 19.8853C11.2927 20.1985 11.3775 20.5426 11.6134 20.7725L17.1735 26.1921L15.8608 33.8446C15.8052 34.1692 15.9386 34.4974 16.2053 34.691C16.4716 34.8846 16.825 34.9102 17.1166 34.7569L18.955 33.7904C18.7387 33.5931 18.6339 33.2984 18.684 33.0057Z" fill="#231F20"/>
</g>
<g opacity="0.1">
<path d="M10.5262 9.39902L11.1078 6.00865L8.64459 3.60772C8.59322 3.55765 8.55825 3.49531 8.54109 3.42847L6.03375 3.79278C5.88947 3.81378 5.76938 3.91484 5.72429 4.05368C5.67929 4.19234 5.71688 4.34468 5.82132 4.44659L8.2845 6.84752L7.70297 10.2379C7.67831 10.3817 7.73738 10.5269 7.8555 10.6128C7.97363 10.6986 8.13019 10.7099 8.25928 10.642L10.5209 9.45302C10.5214 9.43502 10.5232 9.41702 10.5262 9.39902Z" fill="#231F20"/>
</g>
<g opacity="0.1">
<path d="M24.1142 46.825L24.55 44.2853L22.7046 42.4867C22.6719 42.4548 22.65 42.4154 22.6358 42.3738L22.5907 42.4652L20.0405 42.8357C19.9324 42.8514 19.8423 42.9273 19.8085 43.0312C19.7747 43.1351 19.8029 43.2493 19.8812 43.3256L21.7266 45.1243L21.2908 47.664C21.2725 47.7717 21.3166 47.8806 21.405 47.945C21.4935 48.0093 21.6108 48.0176 21.7076 47.9668L23.9883 46.7675L24.1137 46.8335C24.1144 46.8306 24.1137 46.8278 24.1142 46.825Z" fill="#231F20"/>
</g>
<path d="M42.2709 30.7862C43.657 30.7862 44.7806 29.6626 44.7806 28.2765C44.7806 26.8905 43.657 25.7668 42.2709 25.7668C40.8849 25.7668 39.7612 26.8905 39.7612 28.2765C39.7612 29.6626 40.8849 30.7862 42.2709 30.7862Z" fill="white"/>
<path d="M5.72892 34.8534C7.11498 34.8534 8.2386 33.7297 8.2386 32.3437C8.2386 30.9576 7.11498 29.834 5.72892 29.834C4.34286 29.834 3.21924 30.9576 3.21924 32.3437C3.21924 33.7297 4.34286 34.8534 5.72892 34.8534Z" fill="white"/>
<path opacity="0.1" d="M41.4393 28.2769C41.4393 27.185 42.1365 26.2567 43.1099 25.9114C42.8475 25.8184 42.5653 25.7673 42.2709 25.7673C40.8847 25.7673 39.7612 26.8908 39.7612 28.277C39.7612 29.663 40.8847 30.7867 42.2709 30.7867C42.5653 30.7867 42.8475 30.7356 43.1099 30.6425C42.1366 30.2971 41.4393 29.3687 41.4393 28.2769Z" fill="#231F20"/>
<path opacity="0.1" d="M4.89727 32.3432C4.89727 31.2515 5.59448 30.323 6.56789 29.9777C6.30548 29.8846 6.0232 29.8335 5.72892 29.8335C4.34274 29.8335 3.21924 30.957 3.21924 32.3432C3.21924 33.7292 4.34274 34.8529 5.72892 34.8529C6.0232 34.8529 6.30548 34.8018 6.56789 34.7087C5.59467 34.3634 4.89727 33.435 4.89727 32.3432Z" fill="#231F20"/>
<path d="M35.8497 10.687C36.8176 10.687 37.6023 9.90236 37.6023 8.93444C37.6023 7.96653 36.8176 7.18188 35.8497 7.18188C34.8818 7.18188 34.0972 7.96653 34.0972 8.93444C34.0972 9.90236 34.8818 10.687 35.8497 10.687Z" fill="white"/>
<path d="M39.7614 42.5397C40.7294 42.5397 41.5141 41.755 41.5141 40.7871C41.5141 39.8191 40.7294 39.0344 39.7614 39.0344C38.7935 39.0344 38.0088 39.8191 38.0088 40.7871C38.0088 41.755 38.7935 42.5397 39.7614 42.5397Z" fill="white"/>
</svg>
