<svg width="14" height="14" viewBox="0 0 14 14" fill="none" xmlns="http://www.w3.org/2000/svg">
<path fill-rule="evenodd" clip-rule="evenodd" d="M7 11.375C9.41622 11.375 11.375 9.41622 11.375 7C11.375 4.58375 9.41622 2.625 7 2.625C4.58375 2.625 2.625 4.58375 2.625 7C2.625 9.41622 4.58375 11.375 7 11.375ZM7 12.25C9.89952 12.25 12.25 9.89952 12.25 7C12.25 4.10051 9.89952 1.75 7 1.75C4.10051 1.75 1.75 4.10051 1.75 7C1.75 9.89952 4.10051 12.25 7 12.25Z" fill="#CBA42C"/>
<path d="M7 10.0625C8.69137 10.0625 10.0625 8.69137 10.0625 7C10.0625 5.30863 8.69137 3.9375 7 3.9375C5.30863 3.9375 3.9375 5.30863 3.9375 7C3.9375 8.69137 5.30863 10.0625 7 10.0625Z" fill="#CBA42C"/>
</svg>
