<svg width="132" height="132" viewBox="0 0 132 132" fill="none" xmlns="http://www.w3.org/2000/svg">
<g filter="url(#filter0_f_639_2509)">
<circle cx="65.5" cy="66.5" r="38.5" stroke="#F5F5F5" stroke-opacity="0.6" stroke-width="2"/>
</g>
<g filter="url(#filter1_f_639_2509)">
<path d="M66 10L68.7719 63.2281L122 66L68.7719 68.7719L66 122L63.2281 68.7719L10 66L63.2281 63.2281L66 10Z" fill="url(#paint0_radial_639_2509)"/>
<path d="M68.2725 63.2539L68.2959 63.7041L68.7461 63.7275L112.39 66L68.7461 68.2725L68.2959 68.2959L68.2725 68.7461L66 112.39L63.7275 68.7461L63.7041 68.2959L63.2539 68.2725L19.6094 66L63.2539 63.7275L63.7041 63.7041L63.7275 63.2539L66 19.6094L68.2725 63.2539Z" stroke="#F5F5F5" stroke-opacity="0.6"/>
<path d="M43.6274 43.6275L66.2548 64.0149L88.8822 43.6275L68.4948 66.2549L88.8822 88.8823L66.2548 68.4949L43.6274 88.8823L64.0148 66.2549L43.6274 43.6275Z" fill="url(#paint1_radial_639_2509)"/>
<path d="M65.9206 64.3863L66.2548 64.6874L66.5891 64.3863L82.0874 50.4223L68.1234 65.9207L67.8223 66.2549L68.1234 66.5891L82.0874 82.0874L66.5891 68.1235L66.2548 67.8224L65.9206 68.1235L50.4216 82.0881L64.3862 66.5891L64.6873 66.2549L64.3862 65.9207L50.4216 50.4216L65.9206 64.3863Z" stroke="#F5F5F5" stroke-opacity="0.6"/>
<path d="M60.7759 40.5304L66.3775 62.6412L76.7444 42.3238L68.2797 63.5044L88.6089 53.1608L69.3113 65.3209L91.8378 68.902L69.0781 67.3968L85.1976 83.5347L67.6693 68.9392L71.2246 91.4698L65.623 69.3589L55.2561 89.6763L63.7207 68.4957L43.3915 78.8393L62.6892 66.6792L40.1627 63.0982L62.9223 64.6033L46.8029 48.4654L64.3311 63.0609L60.7759 40.5304Z" fill="url(#paint2_radial_639_2509)"/>
<path d="M65.8928 62.7642L66.2188 64.0522L66.8224 62.8686L72.2325 52.2635L67.815 63.319L67.3223 64.5525L68.5066 63.9497L79.1202 58.5487L69.0451 64.898L67.9212 65.606L69.233 65.8145L80.994 67.6837L69.1114 66.8981L67.7854 66.8102L68.7239 67.7502L77.1368 76.1729L67.9888 68.5549L66.968 67.7046L67.1754 69.0169L69.0293 80.7718L66.1078 69.2359L65.7818 67.9479L65.1772 69.1317L59.766 79.736L64.1846 68.6813L64.6783 67.4476L63.494 68.0504L52.8792 73.4506L62.9555 67.1021L64.0794 66.3941L62.7676 66.1856L51.0054 64.3156L62.8892 65.102L64.2152 65.1899L63.2757 64.2501L54.8617 55.8266L64.0108 63.4454L65.0326 64.2955L64.8252 62.9832L62.9692 51.2277L65.8928 62.7642Z" stroke="#F5F5F5" stroke-opacity="0.6"/>
<path d="M69.4193 29.5571L67.6174 61.9022L90.2984 38.7716L69.8287 63.8802L101.774 58.4987L70.4549 66.7802L99.4622 81.2034L69.2571 69.4945L84.2467 98.2131L66.6925 70.9863L61.939 103.031L63.7409 70.6858L41.0599 93.8163L61.5297 68.7077L29.5845 74.0892L60.9034 65.8077L31.8961 51.3846L62.1013 63.0935L47.1116 34.3748L64.6658 61.6017L69.4193 29.5571Z" fill="url(#paint3_radial_639_2509)"/>
<path d="M67.1183 61.874L67.0441 63.2005L67.974 62.2527L83.0219 46.9049L69.4415 63.5643L68.6014 64.5939L69.9118 64.3729L91.1011 60.8025L70.3274 66.297L69.0423 66.6364L70.2327 67.2277L89.473 76.795L69.4378 69.0286L68.1989 68.5481L68.8142 69.7258L78.7595 88.7813L67.1124 70.7158L66.3927 69.599L66.198 70.9132L63.0447 92.167L64.2404 70.7139L64.3136 69.3874L63.3836 70.3361L48.3394 85.6764L61.9172 69.0236L62.7563 67.994L61.4469 68.215L40.2557 71.7843L61.0312 66.2909L62.3154 65.9515L61.126 65.3602L41.8839 55.7917L61.9209 63.5594L63.1589 64.0398L62.5445 62.8621L52.6032 43.8159L64.2452 61.8731L64.965 62.9888L65.1607 61.6747L68.3131 40.4199L67.1183 61.874Z" stroke="#F5F5F5" stroke-opacity="0.6"/>
</g>
<path d="M66 10L68.7719 63.2281L122 66L68.7719 68.7719L66 122L63.2281 68.7719L10 66L63.2281 63.2281L66 10Z" fill="url(#paint4_radial_639_2509)"/>
<path d="M68.2725 63.2539L68.2959 63.7041L68.7461 63.7275L112.39 66L68.7461 68.2725L68.2959 68.2959L68.2725 68.7461L66 112.39L63.7275 68.7461L63.7041 68.2959L63.2539 68.2725L19.6094 66L63.2539 63.7275L63.7041 63.7041L63.7275 63.2539L66 19.6094L68.2725 63.2539Z" stroke="#F5F5F5" stroke-opacity="0.6"/>
<path d="M43.6274 43.6275L66.2548 64.0149L88.8822 43.6275L68.4948 66.2549L88.8822 88.8823L66.2548 68.4949L43.6274 88.8823L64.0148 66.2549L43.6274 43.6275Z" fill="url(#paint5_radial_639_2509)"/>
<path d="M65.9206 64.3863L66.2548 64.6874L66.5891 64.3863L82.0874 50.4223L68.1234 65.9207L67.8223 66.2549L68.1234 66.5891L82.0874 82.0874L66.5891 68.1235L66.2548 67.8224L65.9206 68.1235L50.4216 82.0881L64.3862 66.5891L64.6873 66.2549L64.3862 65.9207L50.4216 50.4216L65.9206 64.3863Z" stroke="#F5F5F5" stroke-opacity="0.6"/>
<path d="M60.7759 40.5304L66.3775 62.6412L76.7444 42.3238L68.2797 63.5044L88.6089 53.1608L69.3113 65.3209L91.8378 68.902L69.0781 67.3968L85.1976 83.5347L67.6693 68.9392L71.2246 91.4698L65.623 69.3589L55.2561 89.6763L63.7207 68.4957L43.3915 78.8393L62.6892 66.6792L40.1627 63.0982L62.9223 64.6033L46.8029 48.4654L64.3311 63.0609L60.7759 40.5304Z" fill="url(#paint6_radial_639_2509)"/>
<path d="M65.8928 62.7642L66.2188 64.0522L66.8224 62.8686L72.2325 52.2635L67.815 63.319L67.3223 64.5525L68.5066 63.9497L79.1202 58.5487L69.0451 64.898L67.9212 65.606L69.233 65.8145L80.994 67.6837L69.1114 66.8981L67.7854 66.8102L68.7239 67.7502L77.1368 76.1729L67.9888 68.5549L66.968 67.7046L67.1754 69.0169L69.0293 80.7718L66.1078 69.2359L65.7818 67.9479L65.1772 69.1317L59.766 79.736L64.1846 68.6813L64.6783 67.4476L63.494 68.0504L52.8792 73.4506L62.9555 67.1021L64.0794 66.3941L62.7676 66.1856L51.0054 64.3156L62.8892 65.102L64.2152 65.1899L63.2757 64.2501L54.8617 55.8266L64.0108 63.4454L65.0326 64.2955L64.8252 62.9832L62.9692 51.2277L65.8928 62.7642Z" stroke="#F5F5F5" stroke-opacity="0.6"/>
<path d="M69.4193 29.5571L67.6174 61.9022L90.2984 38.7716L69.8287 63.8802L101.774 58.4987L70.4549 66.7802L99.4622 81.2034L69.2571 69.4945L84.2467 98.2131L66.6925 70.9863L61.939 103.031L63.7409 70.6858L41.0599 93.8163L61.5297 68.7077L29.5845 74.0892L60.9034 65.8077L31.8961 51.3846L62.1013 63.0935L47.1116 34.3748L64.6658 61.6017L69.4193 29.5571Z" fill="url(#paint7_radial_639_2509)"/>
<path d="M67.1183 61.874L67.0441 63.2005L67.974 62.2527L83.0219 46.9049L69.4415 63.5643L68.6014 64.5939L69.9118 64.3729L91.1011 60.8025L70.3274 66.297L69.0423 66.6364L70.2327 67.2277L89.473 76.795L69.4378 69.0286L68.1989 68.5481L68.8142 69.7258L78.7595 88.7813L67.1124 70.7158L66.3927 69.599L66.198 70.9132L63.0447 92.167L64.2404 70.7139L64.3136 69.3874L63.3836 70.3361L48.3394 85.6764L61.9172 69.0236L62.7563 67.994L61.4469 68.215L40.2557 71.7843L61.0312 66.2909L62.3154 65.9515L61.126 65.3602L41.8839 55.7917L61.9209 63.5594L63.1589 64.0398L62.5445 62.8621L52.6032 43.8159L64.2452 61.8731L64.965 62.9888L65.1607 61.6747L68.3131 40.4199L67.1183 61.874Z" stroke="#F5F5F5" stroke-opacity="0.6"/>
<defs>
<filter id="filter0_f_639_2509" x="23" y="24" width="85" height="85" filterUnits="userSpaceOnUse" color-interpolation-filters="sRGB">
<feFlood flood-opacity="0" result="BackgroundImageFix"/>
<feBlend mode="normal" in="SourceGraphic" in2="BackgroundImageFix" result="shape"/>
<feGaussianBlur stdDeviation="1.5" result="effect1_foregroundBlur_639_2509"/>
</filter>
<filter id="filter1_f_639_2509" x="0" y="0" width="132" height="132" filterUnits="userSpaceOnUse" color-interpolation-filters="sRGB">
<feFlood flood-opacity="0" result="BackgroundImageFix"/>
<feBlend mode="normal" in="SourceGraphic" in2="BackgroundImageFix" result="shape"/>
<feGaussianBlur stdDeviation="5" result="effect1_foregroundBlur_639_2509"/>
</filter>
<radialGradient id="paint0_radial_639_2509" cx="0" cy="0" r="1" gradientUnits="userSpaceOnUse" gradientTransform="translate(66 66) rotate(90) scale(56)">
<stop stop-color="#FFCF32"/>
<stop offset="1" stop-color="#F5F5F5"/>
</radialGradient>
<radialGradient id="paint1_radial_639_2509" cx="0" cy="0" r="1" gradientUnits="userSpaceOnUse" gradientTransform="translate(66.2548 66.2549) rotate(45) scale(32)">
<stop stop-color="#FFCF32"/>
<stop offset="1" stop-color="#F5F5F5"/>
</radialGradient>
<radialGradient id="paint2_radial_639_2509" cx="0" cy="0" r="1" gradientUnits="userSpaceOnUse" gradientTransform="translate(66.0002 66.0001) rotate(78.4082) scale(26 24.7275)">
<stop stop-color="#FFCF32"/>
<stop offset="1" stop-color="#F5F5F5"/>
</radialGradient>
<radialGradient id="paint3_radial_639_2509" cx="0" cy="0" r="1" gradientUnits="userSpaceOnUse" gradientTransform="translate(65.6792 66.294) rotate(95.8132) scale(36.9268 35.1194)">
<stop stop-color="#FFCF32"/>
<stop offset="1" stop-color="#F5F5F5"/>
</radialGradient>
<radialGradient id="paint4_radial_639_2509" cx="0" cy="0" r="1" gradientUnits="userSpaceOnUse" gradientTransform="translate(66 66) rotate(90) scale(56)">
<stop stop-color="#FFCF32"/>
<stop offset="1" stop-color="#F5F5F5"/>
</radialGradient>
<radialGradient id="paint5_radial_639_2509" cx="0" cy="0" r="1" gradientUnits="userSpaceOnUse" gradientTransform="translate(66.2548 66.2549) rotate(45) scale(32)">
<stop stop-color="#FFCF32"/>
<stop offset="1" stop-color="#F5F5F5"/>
</radialGradient>
<radialGradient id="paint6_radial_639_2509" cx="0" cy="0" r="1" gradientUnits="userSpaceOnUse" gradientTransform="translate(66.0002 66.0001) rotate(78.4082) scale(26 24.7275)">
<stop stop-color="#FFCF32"/>
<stop offset="1" stop-color="#F5F5F5"/>
</radialGradient>
<radialGradient id="paint7_radial_639_2509" cx="0" cy="0" r="1" gradientUnits="userSpaceOnUse" gradientTransform="translate(65.6792 66.294) rotate(95.8132) scale(36.9268 35.1194)">
<stop stop-color="#FFCF32"/>
<stop offset="1" stop-color="#F5F5F5"/>
</radialGradient>
</defs>
</svg>
