<svg width="24" height="25" viewBox="0 0 24 25" fill="none" xmlns="http://www.w3.org/2000/svg">
<path d="M12.7887 1.63989C12.0889 1.65452 11.5859 1.79205 11.2527 2.0358L6.69841 4.48014L4.16224 7.92611C3.62913 8.74905 4.00867 10.3437 5.67714 9.32172L7.50058 6.91464C9.81977 4.91256 14.5546 5.83502 12.3093 9.84859C11.2064 12.1728 11.7254 13.3075 13.1418 13.7838L13.7893 11.6096C14.9119 9.0866 17.0003 8.63261 16.9151 6.59852L21.9449 6.96058L21.9043 1.70847L12.7887 1.63989ZM10.2532 6.48386C9.43713 6.4698 8.63669 6.80721 8.05384 7.29831L6.22366 9.70441C6.72583 10.1031 7.22739 9.89003 7.72952 9.40614C8.32136 9.70586 8.77788 9.24105 9.15288 8.3141C9.30836 7.6818 9.53772 7.23424 10.2532 6.48386ZM8.7243 10.624C8.63949 10.6267 8.55609 10.6464 8.47905 10.6819L2.42444 13.4715C2.10644 13.6182 1.9668 13.9966 2.11352 14.3148L6.11055 22.9905C6.25731 23.3084 6.63574 23.4489 6.9543 23.3015L13.0082 20.5122C13.3268 20.3652 13.4665 19.9873 13.3197 19.6685L9.32214 10.9934C9.21227 10.7545 8.9718 10.6164 8.7243 10.624Z" fill="white"/>
</svg>
