<svg width="24" height="24" viewBox="0 0 36 36" fill="none" xmlns="http://www.w3.org/2000/svg">
<path fill-rule="evenodd" clip-rule="evenodd" d="M20.0355 27.9721C19.3376 28.1467 18.6309 28.2146 17.949 28.2146C14.3201 28.2146 9.97387 26.6183 9.97387 16.6535C9.97387 6.69235 14.525 3.94014 18.1539 3.94014C21.7828 3.94014 26.0018 6.31082 26.0018 16.2756C26.0018 20.7918 25.099 23.6629 23.7739 25.4575C23.7527 25.4593 23.7368 25.454 23.7368 25.454C20.7192 21.4868 16.8041 22.4371 15.866 22.8691C15.866 22.8691 15.9843 23.7779 16.2335 25.432C18.3041 25.4302 19.3306 26.5248 20.0461 27.9378C20.039 27.954 20.0355 27.9721 20.0355 27.9721ZM25.9364 29.8767C25.9364 29.8767 25.9399 29.8655 25.9435 29.8529C30.3533 27.0665 33.3002 21.9852 33.3002 15.8977C33.3002 4.16711 25.8445 0 18.0497 0C10.6947 0 2.7002 5.88789 2.7002 16.1227C2.7002 27.8532 10.1558 32.1548 17.9525 32.1548C19.1786 32.1548 20.3694 32.0058 21.5125 31.7268C21.5125 31.7268 21.5301 31.7337 21.5407 31.7355C24.6131 37.3263 29.189 35.9743 30.3692 35.5333C30.3692 35.5333 30.2102 34.5488 29.9328 32.7164C27.7261 32.6588 26.742 31.5309 25.9364 29.8767Z" fill="white"/>
</svg>
