<svg width="46" height="44" viewBox="0 0 46 44" fill="none" xmlns="http://www.w3.org/2000/svg">
<path d="M35.252 43.7266L24.0736 38.5307C23.3332 38.1864 23.0111 37.3059 23.3555 36.5642L31.2656 19.5464C31.6094 18.8054 32.4909 18.4839 33.2309 18.8277L44.4096 24.0246C45.1502 24.3689 45.4718 25.2494 45.1274 25.99L37.2177 43.0078C36.8729 43.7488 35.9919 44.0704 35.252 43.7266ZM8.27658 41.8699L0.855328 24.6335C0.532078 23.8828 0.879234 23.0114 1.62877 22.6888L5.30339 21.107L9.8948 38.3611C10.3349 40.01 12.0281 40.9934 13.6785 40.5539L17.3378 39.5803L10.2215 42.6446C9.47086 42.9673 8.60002 42.6207 8.27677 41.87L8.27658 41.8699ZM11.4538 37.9455L6.6277 19.8099C6.4177 19.0205 6.88833 18.2088 7.67677 17.9994L10.8674 17.1508L10.4832 20.0068C10.2561 21.6977 11.4417 23.2555 13.1349 23.4838L20.6188 24.4923L17.5722 34.7548C17.2586 35.8123 17.5375 36.9062 18.2159 37.678L13.264 38.9952C12.4746 39.2052 11.6638 38.7355 11.4538 37.9455ZM21.6189 37.4993L20.117 37.053C19.3333 36.8196 18.887 35.9967 19.1191 35.213L24.4601 17.2224C24.693 16.4386 25.5176 15.9924 26.2996 16.2239L30.9002 17.5911L30.901 17.5906L30.9122 17.5948L30.8998 17.5916C30.4376 17.8966 30.0523 18.3292 29.8024 18.867L21.8918 35.8855C21.6493 36.4092 21.565 36.9652 21.6185 37.4997L21.6189 37.4993ZM21.0839 22.9277L13.3508 21.8855C12.5415 21.7762 11.9723 21.0305 12.0816 20.2207L14.5875 1.62163C14.6963 0.812285 15.443 0.243692 16.2507 0.352442L28.4688 1.99897C29.2776 2.10829 29.8462 2.85444 29.7375 3.66322L28.1956 15.1057L26.7585 14.6789C25.1209 14.1917 23.3998 15.1274 22.9143 16.7632L21.0839 22.9277ZM20.5973 19.9783C21.0351 19.6919 21.298 19.281 21.3867 18.746C21.4744 18.2179 21.3532 17.7507 21.0242 17.3449C20.6952 16.9311 20.2377 16.6755 19.6502 16.5782C19.0555 16.4791 18.5318 16.5714 18.0799 16.8553C17.6275 17.1394 17.3588 17.5412 17.2723 18.0619C17.1881 18.5668 17.3121 19.0388 17.6445 19.4758C17.9787 19.8981 18.4437 20.1588 19.0379 20.2577C19.6332 20.3568 20.1528 20.2635 20.5973 19.9783ZM23.0327 12.3618C23.4727 12.1063 23.866 11.8524 24.2138 11.6008C24.561 11.3492 24.8621 11.0772 25.1171 10.7829C25.3721 10.4894 25.5827 10.1667 25.7483 9.8166C25.9133 9.46597 26.034 9.0636 26.1092 8.6105C26.2275 7.89613 26.2049 7.26444 26.0403 6.71357C25.8763 6.16325 25.6004 5.68794 25.2122 5.28669C24.8246 4.88638 24.346 4.55985 23.7762 4.30888C23.2071 4.05725 22.5758 3.87453 21.8849 3.7595C21.1637 3.6395 20.4505 3.60932 19.746 3.66791C19.0413 3.72547 18.3744 3.87857 17.7448 4.12541L17.187 7.48185C17.8257 7.08341 18.4779 6.81585 19.1421 6.67869C19.8068 6.54041 20.4289 6.51932 21.009 6.61607C23.0215 6.99969 22.8315 8.95025 21.8302 9.80638C21.3003 10.2257 20.7676 10.6316 20.3356 10.87C19.3531 11.4244 17.7397 13.0379 18.2223 15.1023L21.1552 15.59C20.4886 13.9253 22.2486 12.8279 23.0328 12.3618H23.0327Z" fill="white"/>
</svg>
