<svg width="24" height="24" viewBox="0 0 32 32" fill="none" xmlns="http://www.w3.org/2000/svg">
<path d="M30.5549 25.219L18.0359 3.783C16.9919 2.739 15.2979 2.739 14.2539 3.783L1.73393 25.219C0.689928 26.262 0.689928 27.955 1.73393 29H30.5539C31.5999 27.955 31.5999 26.262 30.5549 25.219ZM14.9919 11.478C14.9919 10.649 15.6639 9.978 16.4919 9.978C17.3199 9.978 17.9919 10.649 17.9919 11.478V18.478C17.9919 19.306 17.3199 19.978 16.4919 19.978C15.6639 19.978 14.9919 19.306 14.9919 18.478V11.478ZM16.5009 24.986C15.6729 24.986 15.0009 24.316 15.0009 23.486C15.0009 22.658 15.6729 21.986 16.5009 21.986C17.3289 21.986 18.0009 22.658 18.0009 23.486C18.0009 24.316 17.3289 24.986 16.5009 24.986Z" fill="#FF0000"/>
</svg>
